<svg width="20" height="20" viewBox="0 0 20 20" fill="none" xmlns="http://www.w3.org/2000/svg">
<path d="M0.292893 17.9706C-0.097631 18.3611 -0.097631 18.9943 0.292893 19.3848C0.683418 19.7753 1.31658 19.7753 1.70711 19.3848L0.292893 17.9706ZM19.6777 1C19.6777 0.447718 19.23 2.52209e-06 18.6777 2.29249e-06L9.67767 3.4726e-06C9.12538 3.1587e-06 8.67767 0.447719 8.67767 1C8.67767 1.55229 9.12539 2 9.67767 2L17.6777 2L17.6777 10C17.6777 10.5523 18.1254 11 18.6777 11C19.23 11 19.6777 10.5523 19.6777 10L19.6777 1ZM1.70711 19.3848L19.3848 1.70711L17.9706 0.292896L0.292893 17.9706L1.70711 19.3848Z" fill="white"/>
</svg>
